HIERARCHY
ROOT hip
{
  OFFSET 0.0 0.0 0.0
  CHANNELS 6 Xposition Yposition Zposition Zrotation Yrotation Xrotation
  JOINT torso
  {
    OFFSET 0.0 0.0 0.0
    CHANNELS 3 Zrotation Xrotation Yrotation
    JOINT neck
    {
      OFFSET -8.600829999999974 327.7417449999999 60.895874000000276
      CHANNELS 3 Zrotation Xrotation Yrotation
      JOINT head
      {
        OFFSET 0.7211610000001087 266.848846 239.12060599999995
        CHANNELS 3 Zrotation Xrotation Yrotation
        End Site
        {
          OFFSET 0.0 0.0 0.0
        }
      }
    }
    JOINT left_collar
    {
      OFFSET -8.600829999999974 327.7417449999999 60.895874000000276
      CHANNELS 3 Zrotation Xrotation Yrotation
      JOINT left_upper_arm
      {
        OFFSET -122.29599000000002 -5.21875 31.800903999999946
        CHANNELS 3 Zrotation Xrotation Yrotation
        JOINT left_forearm
        {
          OFFSET -195.94708199999997 63.423126000000025 226.99352999999996
          CHANNELS 3 Zrotation Xrotation Yrotation
          JOINT left_hand
          {
            OFFSET -232.19226099999992 28.282164999999964 80.86950699999989
            CHANNELS 3 Zrotation Xrotation Yrotation
            End Site
            {
              OFFSET 0.0 0.0 0.0
            }
          }
        }
      }
    }
    JOINT right_collar
    {
      OFFSET -8.600829999999974 327.7417449999999 60.895874000000276
      CHANNELS 3 Zrotation Xrotation Yrotation
      JOINT right_upper_arm
      {
        OFFSET 168.41261300000002 -11.913361000000066 -9.389160000000174
        CHANNELS 3 Zrotation Xrotation Yrotation
        JOINT right_forearm
        {
          OFFSET 213.49279800000005 104.82293699999997 83.52258300000017
          CHANNELS 3 Zrotation Xrotation Yrotation
          JOINT right_hand
          {
            OFFSET 222.067185 62.005675999999994 -110.52026300000034
            CHANNELS 3 Zrotation Xrotation Yrotation
            End Site
            {
              OFFSET 0.0 0.0 0.0
            }
          }
        }
      }
    }
  }
}
MOTION
Frames: 16
Frame Time: 0.01
-378.25596251153854 114.07721053134519 1457.11856676235 4.153528491742517 -17.480734916357747 -16.06328318951509 -2.3012046195749307 9.376159511691293 0.4927463347614536 -5.274330009964689 -0.3790670373441669 4.731962550739001 0.0 0.0 0.0 0.24157058460050623 -0.0889396648477161 3.4029921258754654 56.0264781691686 42.30078801704907 27.85445440882142 39.37658469259615 13.305695013120271 1.202066805914784 0.0 0.0 0.0 -7.077153783070587 -0.12513595987156062 2.0389497675556063 -64.77999046655468 20.05828885147218 -8.73969532749991 -42.72670338065408 -21.74576153885201 -10.123786141148868 0.0 120.0 0.0
-378.40025086853734 114.06438080865199 1456.1466311347504 4.176787865573285 -17.46925402055751 -16.062931861869515 -2.32034208805728 9.372554534295935 0.4947359993708141 -5.288505816842452 -0.36313566087376287 4.744496433705922 0.0 0.0 0.0 0.24562225039937632 -0.08804031691991346 3.4035937058618515 56.017082584611956 42.28905009245941 27.869136854431087 39.36283919119494 13.29934844480947 1.2082851366388403 0.0 0.0 0.0 -7.080912899960666 -0.12494129773535022 2.0414930035857477 -65.49181962614931 20.02451512406842 -9.97621342760139 -42.141294139360554 -21.389097730737678 -9.953801176411591 0.0 120.0 0.0
-378.5456311253138 114.04999778359834 1455.164341657085 4.200315178038708 -17.45812412794222 -16.063782917568496 -2.339173974113201 9.368755832915712 0.49669336485332954 -5.3038718616883935 -0.34600716504748447 4.758083465653224 0.0 0.0 0.0 0.24947184094664132 -0.08724080506081482 3.4054040404649735 56.0078073235462 42.27739923764279 27.88379101844762 39.34956686563345 13.293019312615732 1.215068610647061 0.0 0.0 0.0 -7.084485134611814 -0.12455733861434087 2.045402488981936 -66.18533545706418 19.97415049576198 -11.203170327047365 -41.59199424900037 -21.04661153972776 -9.739262723693088 0.0 120.0 0.0
-378.6908489925825 114.03300981736356 1454.1635065305186 4.224232557246694 -17.447631806941573 -16.06625461009521 -2.357460152737921 9.364678863680515 0.49859263467026266 -5.32086791411611 -0.3273983819792828 4.773114698656588 0.0 0.0 0.0 0.2531599391037123 -0.08655314539414966 3.4089001196548354 55.998518039015124 42.2659603193744 27.897921555539227 39.33682919851511 13.286742702171406 1.222364050779856 0.0 0.0 0.0 -7.087902431213951 -0.12393656985114927 2.0510431967363796 -66.8522545323815 19.908546313346054 -12.407255101043772 -41.08448993275366 -20.722829796581763 -9.484952417431911 0.0 120.0 0.0
-378.83457133807775 114.01220943598202 1453.1350412156366 4.2486874973781115 -17.43808769913709 -16.070762313205616 -2.374973155706481 9.360257351976237 0.5004094782604149 -5.339928597866796 -0.3070499801741732 4.789976741217564 0.0 0.0 0.0 0.25675719662178115 -0.08598330788513689 3.414576270590234 55.98905819791936 42.25488013096911 27.910947739844804 39.32461835429529 13.280535215635455 1.2300975416959585 0.0 0.0 0.0 -7.0912060036497095 -0.1230323282602873 2.0587761132594613 -67.4851800415995 19.829710002448795 -13.575664720057873 -40.62294811828938 -20.421456165019755 -9.197314108656375 0.0 120.0 0.0
-378.97539677643704 113.98624165372328 1452.069232612928 4.273849840337697 -17.429822943188803 -16.077702478837114 -2.3915050420221275 9.355448751429662 0.5021217678466855 -5.361466483654497 -0.2847396944720472 4.809036731387516 0.0 0.0 0.0 0.26036415435381943 -0.08553054172208963 3.422927753304303 55.97925387392797 42.24432730490721 27.92221050907511 39.31285222602636 13.274393647810319 1.2381730523684207 0.0 0.0 0.0 -7.094445573592186 -0.12180064798282539 2.068944126952128 -68.0778068582637 19.74017477017985 -14.696459525329292 -40.20997848598374 -20.14526867792814 -8.884064430398743 0.0 120.0 0.0
-379.1118682135823 113.95361631879456 1450.9560111213655 4.2999081104279915 -17.423184946473196 -16.087435325380465 -2.4068737271502862 9.35023902627812 0.5037102516181647 -5.385855250812786 -0.2602945905961442 4.83062736570478 0.0 0.0 0.0 0.2641096166192506 -0.08518696137579818 3.4344325057626195 55.96891920670239 42.234491068653384 27.930983252780003 39.3013727454784 13.268294853531426 1.2464708104348075 0.0 0.0 0.0 -7.097678619753359 -0.120202267757899 2.0818567045238163 -68.62506785937647 19.64283879069443 -15.75888427365788 -39.84667059076344 -19.89608526395501 -8.553742523392705 0.0 120.0 0.0
-379.2424875453093 113.91272409044868 1449.7852196625527 4.327065325990164 -17.418532588229066 -16.100266685540895 -2.420928589366621 9.344646533605607 0.5051591464083329 -5.413413511436621 -0.23360180264645936 4.855032513027611 0.0 0.0 0.0 0.2681475200626615 -0.08493743173108785 3.4495315335525505 55.95786239412534 42.22557881742 27.936486220308993 39.289947745009464 13.262196832082946 1.254845691963267 0.0 0.0 0.0 -7.100969636370158 -0.11820473900315533 2.0977737923521635 -69.12321544192203 19.540788631983673 -16.753638204587293 -39.532699737149294 -19.674792740813576 -8.215236330321808 0.0 120.0 0.0
-379.36573270912334 113.86185536416824 1448.5468692806703 4.355534437002101 -17.416230969742422 -16.116429527969558 -2.433555219011764 9.338724805001899 0.5064566381081641 -5.4443898778428705 -0.20461721809806382 4.882473931110749 0.0 0.0 0.0 0.2726523010885832 -0.08475977750026423 3.4686085336850665 55.94589209771505 42.217812553080414 27.937904264947576 39.27827652706935 13.256040969102079 1.2631260387632082 0.0 0.0 0.0 -7.104389377616136 -0.11578456048978958 2.11688949532805 -69.56983718325353 19.437122505335832 -17.67308049725965 -39.266491266715555 -19.481428690591923 -7.877322257282101 0.0 120.0 0.0
-379.4800772593431 113.79922119068631 1447.2313718876826 4.385533561235857 -17.416645860353324 -16.136065738376438 -2.4446792292699766 9.332564064001453 0.5075952832868554 -5.4789498205482525 -0.17337164416456968 4.913099573666114 0.0 0.0 0.0 0.2778128199332198 -0.08462532833246417 3.491969395726206 55.93282416712356 42.21142429145326 27.93440755363584 39.26599917243199 13.249755323059258 1.2711133529485612 0.0 0.0 0.0 -7.108014048691729 -0.11292925311922543 2.1393161784332726 -69.96381018839334 19.33478778829655 -18.511362735025525 -39.04542888981315 -19.31530146600677 -7.548250544835226 0.0 120.0 0.0
-379.5840125641064 113.72297500931997 1445.8297421517693 4.417281210321933 -17.420138022314642 -16.159208791855793 -2.454269100620982 9.326291369585196 0.5085723104206963 -5.517164805387092 -0.13997407553952523 4.946973922945193 0.0 0.0 0.0 0.28382493961776034 -0.08449979782261166 3.5198222342576186 55.918488624246244 42.206650573472714 27.925174844972258 39.25270950613047 13.243258822113335 1.2785832515814146 0.0 0.0 0.0 -7.1119243876669245 -0.10963928243350081 2.16506968172421 -70.305203981235 19.236444369257143 -19.26448675675054 -38.86608952532817 -19.17513174838402 -7.235400981663932 0.0 120.0 0.0
-379.6760726024457 113.6312338562771 1444.3337624400108 4.450991698500999 -17.427057631498077 -16.18576796009143 -2.4623380732146587 9.320069347764036 0.5093898225880613 -5.559004113144003 -0.10461179726640531 4.984070706135609 0.0 0.0 0.0 0.2908828924621178 -0.0843444811042465 3.5522585827148223 55.90273687936876 42.203726240039586 27.909418928934826 39.23797153014998 13.23646623284225 1.285287938163028 0.0 0.0 0.0 -7.116204565191986 -0.10592973846232095 2.1940563264700894 -70.5951455387399 19.144361317149286 -19.93029267678766 -38.724485878440916 -19.05919974695249 -6.945024088243658 0.0 120.0 0.0
-379.7548611713746 113.52209762871114 1442.7361070367617 4.486870900594171 -17.437739040248392 -16.215514676009054 -2.468945121308123 9.31409355910698 0.5100549044787782 -5.604329638249828 -0.06754719478372416 5.024268257785129 0.0 0.0 0.0 0.29916960925538344 -0.08411774046182038 3.5892363421646403 55.885449169004765 42.20287765835182 27.88641378153248 39.22133899739781 13.229293754976364 1.2909603054989878 0.0 0.0 0.0 -7.120940816293568 -0.1018316899313485 2.226062337572839 -70.83566142572565 19.060350047962135 -20.50838635103724 -38.61629917735435 -18.9654848978765 -6.682073380019284 0.0 120.0 0.0
-379.8190811082945 113.39366499629934 1441.030424318714 4.525112472061757 -17.452496145666 -16.24807163393351 -2.474195039117536 9.308588642277888 0.5105796349787269 -5.652893846771295 -0.02911129913460987 5.06734768605642 0.0 0.0 0.0 0.3088462498670878 -0.08377673066156477 3.6305650612904614 55.86654219635805 42.20431562795567 27.855522878616753 39.202377617702616 13.221665072128731 1.2953196470654913 0.0 0.0 0.0 -7.126219715003107 -0.09739313823206237 2.2607462494324815 -71.02951105258349 18.985733279881764 -21.000017772458445 -38.5370877826915 -18.891788912769275 -6.4501261432705705 0.0 120.0 0.0
-379.8675649141583 113.24404466702984 1439.2113778409096 4.565894573397132 -17.471618623013736 -16.282905147556036 -2.478237644555364 9.303803462139742 0.5109810032697428 -5.704340961998943 0.010305741436477086 5.112993900479398 0.0 0.0 0.0 0.3200412658371925 -0.08327929589656538 3.675894149237505 55.845976910586 42.208228248085234 27.816227919032094 39.18068915617355 13.213517645204975 1.298078834152715 0.0 0.0 0.0 -7.132126015897152 -0.09267950368060576 2.29763481628486 -71.18002253215425 18.92134608170384 -21.407922279405522 -38.482461989301484 -18.835837267860885 -6.251383953128889 0.0 120.0 0.0
-379.89930595133467 113.0713609496643 1437.2746491147473 4.609377067248184 -17.49536925423881 -16.319321229711857 -2.4812660777572413 9.300005565676956 0.5112807226735633 -5.758211347071454 0.050266912999116634 5.160799470908276 0.0 0.0 0.0 0.3328394373372633 -0.08258595076263861 3.7247046841978273 55.82376627998062 42.21477408278978 27.76815695425991 39.15593644485905 13.204808981893942 1.2989527268150427 0.0 0.0 0.0 -7.13874002371218 -0.08777358440524939 2.3361228993058663 -71.2909392797539 18.867563381484192 -21.736135731110245 -38.44822036282242 -18.79535796222648 -6.086740041391784 0.0 120.0 0.0
